<mxfile host="app.diagrams.net" agent="Mozilla/5.0 (Macintosh; Intel Mac OS X 10_15_7) AppleWebKit/537.36 (KHTML, like Gecko) Chrome/134.0.0.0 Safari/537.36" version="26.1.1">
  <diagram name="Page-1" id="MKXA0fDUGcRWl4akMo9s">
    <mxGraphModel dx="1594" dy="1131" grid="1" gridSize="10" guides="1" tooltips="1" connect="1" arrows="1" fold="1" page="0" pageScale="1" pageWidth="827" pageHeight="1169" math="0" shadow="0">
      <root>
        <mxCell id="0" />
        <mxCell id="1" parent="0" />
        <mxCell id="rjRmtGKfGtrBU_hQQWLT-1" value="main" style="rounded=0;whiteSpace=wrap;html=1;fillColor=#d5e8d4;strokeColor=#82b366;" parent="1" vertex="1">
          <mxGeometry x="40" y="30" width="120" height="60" as="geometry" />
        </mxCell>
        <mxCell id="rjRmtGKfGtrBU_hQQWLT-2" value="FGI" style="rounded=0;whiteSpace=wrap;html=1;fillColor=#d5e8d4;strokeColor=#82b366;" parent="1" vertex="1">
          <mxGeometry x="240" y="114" width="120" height="60" as="geometry" />
        </mxCell>
        <mxCell id="rjRmtGKfGtrBU_hQQWLT-3" value="COININFO" style="rounded=0;whiteSpace=wrap;html=1;fillColor=#d5e8d4;strokeColor=#82b366;" parent="1" vertex="1">
          <mxGeometry x="240" y="-55" width="120" height="60" as="geometry" />
        </mxCell>
        <mxCell id="rjRmtGKfGtrBU_hQQWLT-4" value="swapfinder" style="rounded=0;whiteSpace=wrap;html=1;fillColor=#dae8fc;strokeColor=#6c8ebf;" parent="1" vertex="1">
          <mxGeometry x="240" y="280" width="120" height="60" as="geometry" />
        </mxCell>
        <mxCell id="rjRmtGKfGtrBU_hQQWLT-5" value="REASON(ASI1)" style="rounded=0;whiteSpace=wrap;html=1;fillColor=#d5e8d4;strokeColor=#82b366;" parent="1" vertex="1">
          <mxGeometry x="240" y="195" width="120" height="60" as="geometry" />
        </mxCell>
        <mxCell id="rjRmtGKfGtrBU_hQQWLT-7" value="" style="endArrow=classic;startArrow=classic;html=1;rounded=0;entryX=0;entryY=0.5;entryDx=0;entryDy=0;exitX=1;exitY=0.5;exitDx=0;exitDy=0;" parent="1" source="rjRmtGKfGtrBU_hQQWLT-1" target="rjRmtGKfGtrBU_hQQWLT-2" edge="1">
          <mxGeometry width="50" height="50" relative="1" as="geometry">
            <mxPoint x="110" y="270" as="sourcePoint" />
            <mxPoint x="160" y="220" as="targetPoint" />
          </mxGeometry>
        </mxCell>
        <mxCell id="rjRmtGKfGtrBU_hQQWLT-8" value="" style="endArrow=classic;startArrow=classic;html=1;rounded=0;entryX=0;entryY=0.5;entryDx=0;entryDy=0;exitX=1;exitY=0.5;exitDx=0;exitDy=0;" parent="1" source="rjRmtGKfGtrBU_hQQWLT-1" target="rjRmtGKfGtrBU_hQQWLT-3" edge="1">
          <mxGeometry width="50" height="50" relative="1" as="geometry">
            <mxPoint x="170" y="200" as="sourcePoint" />
            <mxPoint x="250" y="200" as="targetPoint" />
          </mxGeometry>
        </mxCell>
        <mxCell id="rjRmtGKfGtrBU_hQQWLT-9" value="" style="endArrow=classic;startArrow=classic;html=1;rounded=0;entryX=0;entryY=0.5;entryDx=0;entryDy=0;exitX=1;exitY=0.5;exitDx=0;exitDy=0;" parent="1" source="rjRmtGKfGtrBU_hQQWLT-1" target="rjRmtGKfGtrBU_hQQWLT-5" edge="1">
          <mxGeometry width="50" height="50" relative="1" as="geometry">
            <mxPoint x="140" y="220" as="sourcePoint" />
            <mxPoint x="220" y="300" as="targetPoint" />
          </mxGeometry>
        </mxCell>
        <mxCell id="rjRmtGKfGtrBU_hQQWLT-10" value="" style="endArrow=classic;startArrow=classic;html=1;rounded=0;entryX=0;entryY=0.5;entryDx=0;entryDy=0;" parent="1" target="rjRmtGKfGtrBU_hQQWLT-4" edge="1">
          <mxGeometry width="50" height="50" relative="1" as="geometry">
            <mxPoint x="160" y="70" as="sourcePoint" />
            <mxPoint x="210" y="370" as="targetPoint" />
          </mxGeometry>
        </mxCell>
        <mxCell id="rjRmtGKfGtrBU_hQQWLT-12" value="CRYPTONEWS" style="rounded=0;whiteSpace=wrap;html=1;fillColor=#d5e8d4;strokeColor=#82b366;" parent="1" vertex="1">
          <mxGeometry x="236.5" y="30" width="120" height="60" as="geometry" />
        </mxCell>
        <mxCell id="rjRmtGKfGtrBU_hQQWLT-13" value="NEWS_API" style="ellipse;whiteSpace=wrap;html=1;fillColor=#e1d5e7;strokeColor=#9673a6;" parent="1" vertex="1">
          <mxGeometry x="425.5" y="25" width="105" height="70" as="geometry" />
        </mxCell>
        <mxCell id="rjRmtGKfGtrBU_hQQWLT-14" value="" style="endArrow=classic;startArrow=classic;html=1;rounded=0;exitX=1;exitY=0.5;exitDx=0;exitDy=0;entryX=0;entryY=0.5;entryDx=0;entryDy=0;" parent="1" source="rjRmtGKfGtrBU_hQQWLT-12" target="rjRmtGKfGtrBU_hQQWLT-13" edge="1">
          <mxGeometry width="50" height="50" relative="1" as="geometry">
            <mxPoint x="618" y="510" as="sourcePoint" />
            <mxPoint x="698" y="430" as="targetPoint" />
          </mxGeometry>
        </mxCell>
        <mxCell id="rjRmtGKfGtrBU_hQQWLT-15" value="FGI_API" style="ellipse;whiteSpace=wrap;html=1;fillColor=#e1d5e7;strokeColor=#9673a6;" parent="1" vertex="1">
          <mxGeometry x="425.5" y="110" width="105" height="70" as="geometry" />
        </mxCell>
        <mxCell id="rjRmtGKfGtrBU_hQQWLT-16" value="" style="endArrow=classic;startArrow=classic;html=1;rounded=0;exitX=1;exitY=0.5;exitDx=0;exitDy=0;entryX=0;entryY=0.5;entryDx=0;entryDy=0;" parent="1" source="rjRmtGKfGtrBU_hQQWLT-2" target="rjRmtGKfGtrBU_hQQWLT-15" edge="1">
          <mxGeometry width="50" height="50" relative="1" as="geometry">
            <mxPoint x="420" y="259" as="sourcePoint" />
            <mxPoint x="560" y="309" as="targetPoint" />
          </mxGeometry>
        </mxCell>
        <mxCell id="rjRmtGKfGtrBU_hQQWLT-17" value="" style="endArrow=classic;startArrow=classic;html=1;rounded=0;exitX=1;exitY=0.5;exitDx=0;exitDy=0;entryX=0;entryY=0.5;entryDx=0;entryDy=0;" parent="1" source="rjRmtGKfGtrBU_hQQWLT-3" target="rjRmtGKfGtrBU_hQQWLT-19" edge="1">
          <mxGeometry width="50" height="50" relative="1" as="geometry">
            <mxPoint x="360" y="155" as="sourcePoint" />
            <mxPoint x="420" y="151" as="targetPoint" />
          </mxGeometry>
        </mxCell>
        <mxCell id="rjRmtGKfGtrBU_hQQWLT-19" value="COIN_API" style="ellipse;whiteSpace=wrap;html=1;fillColor=#e1d5e7;strokeColor=#9673a6;" parent="1" vertex="1">
          <mxGeometry x="427.5" y="-60" width="105" height="70" as="geometry" />
        </mxCell>
        <mxCell id="rjRmtGKfGtrBU_hQQWLT-22" value="ethereum&lt;div&gt;WETH/USDC&lt;/div&gt;" style="whiteSpace=wrap;html=1;aspect=fixed;fillColor=#dae8fc;strokeColor=#6c8ebf;" parent="1" vertex="1">
          <mxGeometry x="790" y="210" width="80" height="80" as="geometry" />
        </mxCell>
        <mxCell id="rjRmtGKfGtrBU_hQQWLT-23" value="" style="shape=flexArrow;endArrow=classic;html=1;rounded=0;endWidth=42;endSize=14;width=31;entryX=0;entryY=0.5;entryDx=0;entryDy=0;" parent="1" edge="1">
          <mxGeometry width="50" height="50" relative="1" as="geometry">
            <mxPoint x="370" y="311.5" as="sourcePoint" />
            <mxPoint x="540" y="312" as="targetPoint" />
          </mxGeometry>
        </mxCell>
        <mxCell id="rjRmtGKfGtrBU_hQQWLT-24" value="DISCOVERY" style="edgeLabel;html=1;align=center;verticalAlign=middle;resizable=0;points=[];" parent="rjRmtGKfGtrBU_hQQWLT-23" vertex="1" connectable="0">
          <mxGeometry x="-0.4729" y="-1" relative="1" as="geometry">
            <mxPoint x="14" y="-1" as="offset" />
          </mxGeometry>
        </mxCell>
        <mxCell id="rjRmtGKfGtrBU_hQQWLT-26" value="ethereum&lt;div&gt;USDC/WETH&lt;/div&gt;" style="whiteSpace=wrap;html=1;aspect=fixed;fillColor=#dae8fc;strokeColor=#6c8ebf;" parent="1" vertex="1">
          <mxGeometry x="880" y="210" width="80" height="80" as="geometry" />
        </mxCell>
        <mxCell id="rjRmtGKfGtrBU_hQQWLT-28" value="uagent sdk" style="rounded=0;whiteSpace=wrap;html=1;fillColor=#d5e8d4;strokeColor=#82b366;" parent="1" vertex="1">
          <mxGeometry x="-250" y="60" width="120" height="60" as="geometry" />
        </mxCell>
        <mxCell id="rjRmtGKfGtrBU_hQQWLT-29" value="fetchai sdk" style="rounded=0;whiteSpace=wrap;html=1;fillColor=#dae8fc;strokeColor=#6c8ebf;" parent="1" vertex="1">
          <mxGeometry x="-250" y="135" width="120" height="60" as="geometry" />
        </mxCell>
        <mxCell id="rjRmtGKfGtrBU_hQQWLT-30" value="base&lt;div&gt;WETH/USDC&lt;/div&gt;" style="whiteSpace=wrap;html=1;aspect=fixed;fillColor=#dae8fc;strokeColor=#6c8ebf;" parent="1" vertex="1">
          <mxGeometry x="790" y="300" width="80" height="80" as="geometry" />
        </mxCell>
        <mxCell id="rjRmtGKfGtrBU_hQQWLT-31" value="base&lt;div&gt;USDC/WETH&lt;/div&gt;" style="whiteSpace=wrap;html=1;aspect=fixed;fillColor=#dae8fc;strokeColor=#6c8ebf;" parent="1" vertex="1">
          <mxGeometry x="880" y="300" width="80" height="80" as="geometry" />
        </mxCell>
        <mxCell id="rjRmtGKfGtrBU_hQQWLT-32" value="polygon&lt;br&gt;&lt;div&gt;POL/USDC&lt;/div&gt;" style="whiteSpace=wrap;html=1;aspect=fixed;fillColor=#dae8fc;strokeColor=#6c8ebf;" parent="1" vertex="1">
          <mxGeometry x="790" y="400" width="80" height="80" as="geometry" />
        </mxCell>
        <mxCell id="rjRmtGKfGtrBU_hQQWLT-33" value="polygon&lt;div&gt;USDC/POL&lt;/div&gt;" style="whiteSpace=wrap;html=1;aspect=fixed;fillColor=#dae8fc;strokeColor=#6c8ebf;" parent="1" vertex="1">
          <mxGeometry x="880" y="400" width="80" height="80" as="geometry" />
        </mxCell>
        <mxCell id="rjRmtGKfGtrBU_hQQWLT-34" value="dashboard" style="rounded=0;whiteSpace=wrap;html=1;fillColor=#dae8fc;strokeColor=#6c8ebf;" parent="1" vertex="1">
          <mxGeometry x="240" y="520" width="120" height="60" as="geometry" />
        </mxCell>
        <mxCell id="rjRmtGKfGtrBU_hQQWLT-35" value="" style="endArrow=classic;startArrow=classic;html=1;rounded=0;entryX=0;entryY=0.5;entryDx=0;entryDy=0;exitX=1;exitY=0.5;exitDx=0;exitDy=0;" parent="1" source="rjRmtGKfGtrBU_hQQWLT-1" target="rjRmtGKfGtrBU_hQQWLT-34" edge="1">
          <mxGeometry width="50" height="50" relative="1" as="geometry">
            <mxPoint x="140" y="250" as="sourcePoint" />
            <mxPoint x="220" y="490" as="targetPoint" />
          </mxGeometry>
        </mxCell>
        <mxCell id="rjRmtGKfGtrBU_hQQWLT-36" value="UNISWAPV3&lt;div&gt;smart contract&lt;/div&gt;" style="ellipse;whiteSpace=wrap;html=1;fillColor=#e1d5e7;strokeColor=#9673a6;" parent="1" vertex="1">
          <mxGeometry x="1060" y="280" width="120" height="80" as="geometry" />
        </mxCell>
        <mxCell id="rjRmtGKfGtrBU_hQQWLT-37" value="" style="shape=flexArrow;endArrow=classic;html=1;rounded=0;endWidth=42;endSize=14.04;width=21;" parent="1" edge="1">
          <mxGeometry width="50" height="50" relative="1" as="geometry">
            <mxPoint x="970" y="320" as="sourcePoint" />
            <mxPoint x="1050" y="321" as="targetPoint" />
          </mxGeometry>
        </mxCell>
        <mxCell id="rjRmtGKfGtrBU_hQQWLT-38" value="execute" style="edgeLabel;html=1;align=center;verticalAlign=middle;resizable=0;points=[];" parent="rjRmtGKfGtrBU_hQQWLT-37" vertex="1" connectable="0">
          <mxGeometry x="-0.4729" y="-1" relative="1" as="geometry">
            <mxPoint x="14" y="-1" as="offset" />
          </mxGeometry>
        </mxCell>
        <mxCell id="rjRmtGKfGtrBU_hQQWLT-40" value="" style="endArrow=classic;startArrow=classic;html=1;rounded=0;entryX=0;entryY=0.5;entryDx=0;entryDy=0;exitX=1;exitY=0.5;exitDx=0;exitDy=0;" parent="1" source="rjRmtGKfGtrBU_hQQWLT-1" target="rjRmtGKfGtrBU_hQQWLT-12" edge="1">
          <mxGeometry width="50" height="50" relative="1" as="geometry">
            <mxPoint x="610" y="110" as="sourcePoint" />
            <mxPoint x="690" y="275" as="targetPoint" />
          </mxGeometry>
        </mxCell>
        <mxCell id="rjRmtGKfGtrBU_hQQWLT-41" value="CRYPTO_API&lt;div&gt;TOKEN/USDC&lt;/div&gt;" style="ellipse;whiteSpace=wrap;html=1;fillColor=#e1d5e7;strokeColor=#9673a6;" parent="1" vertex="1">
          <mxGeometry x="410" y="515" width="105" height="70" as="geometry" />
        </mxCell>
        <mxCell id="rjRmtGKfGtrBU_hQQWLT-42" value="" style="endArrow=classic;startArrow=classic;html=1;rounded=0;entryX=0;entryY=0.5;entryDx=0;entryDy=0;exitX=1;exitY=0.5;exitDx=0;exitDy=0;" parent="1" source="rjRmtGKfGtrBU_hQQWLT-34" target="rjRmtGKfGtrBU_hQQWLT-41" edge="1">
          <mxGeometry width="50" height="50" relative="1" as="geometry">
            <mxPoint x="560" y="530" as="sourcePoint" />
            <mxPoint x="640" y="770" as="targetPoint" />
          </mxGeometry>
        </mxCell>
        <mxCell id="VmUqwLE5IVfGvtFNkpmf-1" value="send fees to this REWARD agent&lt;div&gt;sent at start&lt;/div&gt;" style="rounded=0;whiteSpace=wrap;html=1;fillColor=#d5e8d4;strokeColor=#82b366;" parent="1" vertex="1">
          <mxGeometry x="236.5" y="-130" width="120" height="60" as="geometry" />
        </mxCell>
        <mxCell id="VmUqwLE5IVfGvtFNkpmf-2" value="REWARD&lt;div&gt;sent upon request, request sends wallet address&lt;/div&gt;" style="rounded=0;whiteSpace=wrap;html=1;fillColor=#d5e8d4;strokeColor=#82b366;" parent="1" vertex="1">
          <mxGeometry x="240" y="370" width="120" height="60" as="geometry" />
        </mxCell>
        <mxCell id="VmUqwLE5IVfGvtFNkpmf-4" value="" style="endArrow=classic;html=1;rounded=0;entryX=0;entryY=0.5;entryDx=0;entryDy=0;" parent="1" target="VmUqwLE5IVfGvtFNkpmf-1" edge="1">
          <mxGeometry width="50" height="50" relative="1" as="geometry">
            <mxPoint x="160" y="60" as="sourcePoint" />
            <mxPoint x="210" y="-60" as="targetPoint" />
          </mxGeometry>
        </mxCell>
        <mxCell id="VmUqwLE5IVfGvtFNkpmf-6" value="" style="endArrow=classic;startArrow=classic;html=1;rounded=0;entryX=1;entryY=0.5;entryDx=0;entryDy=0;exitX=0;exitY=0.5;exitDx=0;exitDy=0;" parent="1" source="VmUqwLE5IVfGvtFNkpmf-2" target="rjRmtGKfGtrBU_hQQWLT-1" edge="1">
          <mxGeometry width="50" height="50" relative="1" as="geometry">
            <mxPoint x="80" y="380" as="sourcePoint" />
            <mxPoint x="130" y="330" as="targetPoint" />
          </mxGeometry>
        </mxCell>
        <mxCell id="cKEoqrwd5DOWBhyRoy2k-1" value="ASI1_API" style="ellipse;whiteSpace=wrap;html=1;fillColor=#e1d5e7;strokeColor=#9673a6;" parent="1" vertex="1">
          <mxGeometry x="420" y="190" width="105" height="70" as="geometry" />
        </mxCell>
        <mxCell id="cKEoqrwd5DOWBhyRoy2k-2" value="" style="endArrow=classic;startArrow=classic;html=1;rounded=0;exitX=1;exitY=0.5;exitDx=0;exitDy=0;entryX=0;entryY=0.5;entryDx=0;entryDy=0;" parent="1" source="rjRmtGKfGtrBU_hQQWLT-5" target="cKEoqrwd5DOWBhyRoy2k-1" edge="1">
          <mxGeometry width="50" height="50" relative="1" as="geometry">
            <mxPoint x="370" y="200" as="sourcePoint" />
            <mxPoint x="436" y="201" as="targetPoint" />
          </mxGeometry>
        </mxCell>
        <mxCell id="cKEoqrwd5DOWBhyRoy2k-3" value="AGENTVERSE_&lt;div&gt;API&lt;/div&gt;" style="ellipse;whiteSpace=wrap;html=1;fillColor=#e1d5e7;strokeColor=#9673a6;" parent="1" vertex="1">
          <mxGeometry x="410" y="360" width="105" height="70" as="geometry" />
        </mxCell>
        <mxCell id="cKEoqrwd5DOWBhyRoy2k-4" value="" style="endArrow=classic;startArrow=classic;html=1;rounded=0;exitX=1;exitY=0.5;exitDx=0;exitDy=0;entryX=0.029;entryY=0.371;entryDx=0;entryDy=0;entryPerimeter=0;" parent="1" source="rjRmtGKfGtrBU_hQQWLT-4" target="cKEoqrwd5DOWBhyRoy2k-3" edge="1">
          <mxGeometry width="50" height="50" relative="1" as="geometry">
            <mxPoint x="370" y="278.75" as="sourcePoint" />
            <mxPoint x="430" y="278.75" as="targetPoint" />
          </mxGeometry>
        </mxCell>
        <mxCell id="cKEoqrwd5DOWBhyRoy2k-5" value="agentsearch()" style="text;html=1;align=center;verticalAlign=middle;resizable=0;points=[];autosize=1;strokeColor=none;fillColor=none;" parent="1" vertex="1">
          <mxGeometry x="704" y="174" width="100" height="30" as="geometry" />
        </mxCell>
        <mxCell id="SeDEg5RuiidrK3XDI_Y--2" value="llm_swapfinder&lt;div&gt;(query)&lt;/div&gt;" style="shape=process;whiteSpace=wrap;html=1;backgroundOutline=1;fillColor=#fff2cc;strokeColor=#d6b656;" parent="1" vertex="1">
          <mxGeometry x="540" y="290" width="120" height="60" as="geometry" />
        </mxCell>
        <mxCell id="SeDEg5RuiidrK3XDI_Y--5" value="" style="endArrow=classic;startArrow=classic;html=1;rounded=0;exitX=1;exitY=0.5;exitDx=0;exitDy=0;entryX=0.5;entryY=0;entryDx=0;entryDy=0;" parent="1" source="cKEoqrwd5DOWBhyRoy2k-1" target="SeDEg5RuiidrK3XDI_Y--2" edge="1">
          <mxGeometry width="50" height="50" relative="1" as="geometry">
            <mxPoint x="550" y="340" as="sourcePoint" />
            <mxPoint x="663" y="426" as="targetPoint" />
          </mxGeometry>
        </mxCell>
        <mxCell id="SeDEg5RuiidrK3XDI_Y--6" value="" style="shape=flexArrow;endArrow=classic;html=1;rounded=0;exitX=1;exitY=0.5;exitDx=0;exitDy=0;" parent="1" source="SeDEg5RuiidrK3XDI_Y--2" edge="1">
          <mxGeometry width="50" height="50" relative="1" as="geometry">
            <mxPoint x="640" y="425" as="sourcePoint" />
            <mxPoint x="750" y="320" as="targetPoint" />
          </mxGeometry>
        </mxCell>
        <mxCell id="SeDEg5RuiidrK3XDI_Y--8" value="" style="endArrow=none;dashed=1;html=1;dashPattern=1 3;strokeWidth=2;rounded=0;" parent="1" edge="1">
          <mxGeometry width="50" height="50" relative="1" as="geometry">
            <mxPoint x="779" y="470" as="sourcePoint" />
            <mxPoint x="779" y="210" as="targetPoint" />
          </mxGeometry>
        </mxCell>
        <mxCell id="lRYY8CRCjKX5iyrZZCtr-2" value="TOPUP" style="rounded=0;whiteSpace=wrap;html=1;fillColor=#d5e8d4;strokeColor=#82b366;" parent="1" vertex="1">
          <mxGeometry x="240" y="-220" width="120" height="60" as="geometry" />
        </mxCell>
        <mxCell id="lRYY8CRCjKX5iyrZZCtr-3" value="" style="endArrow=classic;html=1;rounded=0;entryX=0;entryY=0.5;entryDx=0;entryDy=0;exitX=1;exitY=0.5;exitDx=0;exitDy=0;" parent="1" source="rjRmtGKfGtrBU_hQQWLT-1" target="lRYY8CRCjKX5iyrZZCtr-2" edge="1">
          <mxGeometry width="50" height="50" relative="1" as="geometry">
            <mxPoint x="150" y="-30" as="sourcePoint" />
            <mxPoint x="227" y="-190" as="targetPoint" />
          </mxGeometry>
        </mxCell>
        <mxCell id="lRYY8CRCjKX5iyrZZCtr-4" value="maintest" style="rounded=0;whiteSpace=wrap;html=1;fillColor=#d5e8d4;strokeColor=#82b366;" parent="1" vertex="1">
          <mxGeometry x="200" y="1300" width="120" height="60" as="geometry" />
        </mxCell>
        <mxCell id="lRYY8CRCjKX5iyrZZCtr-5" value="swapfinder" style="rounded=0;whiteSpace=wrap;html=1;fillColor=#dae8fc;strokeColor=#6c8ebf;" parent="1" vertex="1">
          <mxGeometry x="430" y="1470" width="120" height="60" as="geometry" />
        </mxCell>
        <mxCell id="lRYY8CRCjKX5iyrZZCtr-6" value="" style="endArrow=classic;startArrow=classic;html=1;rounded=0;entryX=0;entryY=0.5;entryDx=0;entryDy=0;exitX=1;exitY=0.5;exitDx=0;exitDy=0;" parent="1" source="lRYY8CRCjKX5iyrZZCtr-4" target="lRYY8CRCjKX5iyrZZCtr-5" edge="1">
          <mxGeometry width="50" height="50" relative="1" as="geometry">
            <mxPoint x="350" y="1260" as="sourcePoint" />
            <mxPoint x="400" y="1560" as="targetPoint" />
          </mxGeometry>
        </mxCell>
        <mxCell id="lRYY8CRCjKX5iyrZZCtr-7" value="base&lt;div&gt;WETH/USDC&lt;/div&gt;" style="whiteSpace=wrap;html=1;aspect=fixed;fillColor=#dae8fc;strokeColor=#6c8ebf;" parent="1" vertex="1">
          <mxGeometry x="750" y="1460" width="80" height="80" as="geometry" />
        </mxCell>
        <mxCell id="lRYY8CRCjKX5iyrZZCtr-8" value="" style="shape=flexArrow;endArrow=classic;html=1;rounded=0;endWidth=42;endSize=14;width=31;entryX=0;entryY=0.5;entryDx=0;entryDy=0;" parent="1" edge="1">
          <mxGeometry width="50" height="50" relative="1" as="geometry">
            <mxPoint x="560" y="1501.5" as="sourcePoint" />
            <mxPoint x="730" y="1502" as="targetPoint" />
          </mxGeometry>
        </mxCell>
        <mxCell id="lRYY8CRCjKX5iyrZZCtr-9" value="DISCOVERY" style="edgeLabel;html=1;align=center;verticalAlign=middle;resizable=0;points=[];" parent="lRYY8CRCjKX5iyrZZCtr-8" vertex="1" connectable="0">
          <mxGeometry x="-0.4729" y="-1" relative="1" as="geometry">
            <mxPoint x="14" y="-1" as="offset" />
          </mxGeometry>
        </mxCell>
        <mxCell id="lRYY8CRCjKX5iyrZZCtr-10" value="GET_FUNDS" style="rounded=0;whiteSpace=wrap;html=1;fillColor=#d5e8d4;strokeColor=#82b366;" parent="1" vertex="1">
          <mxGeometry x="410" y="1250" width="120" height="60" as="geometry" />
        </mxCell>
        <mxCell id="lRYY8CRCjKX5iyrZZCtr-11" value="" style="endArrow=classic;html=1;rounded=0;entryX=0;entryY=0.5;entryDx=0;entryDy=0;exitX=1;exitY=0.5;exitDx=0;exitDy=0;" parent="1" source="lRYY8CRCjKX5iyrZZCtr-4" target="lRYY8CRCjKX5iyrZZCtr-10" edge="1">
          <mxGeometry width="50" height="50" relative="1" as="geometry">
            <mxPoint x="340" y="1160" as="sourcePoint" />
            <mxPoint x="417" y="1000" as="targetPoint" />
          </mxGeometry>
        </mxCell>
        <mxCell id="lRYY8CRCjKX5iyrZZCtr-12" value="Testnet funds, then should send funds from FET wallet to top up the agent at the start of the program" style="text;html=1;align=center;verticalAlign=middle;resizable=0;points=[];autosize=1;strokeColor=none;fillColor=none;" parent="1" vertex="1">
          <mxGeometry x="270" y="1100" width="560" height="30" as="geometry" />
        </mxCell>
        <mxCell id="lRYY8CRCjKX5iyrZZCtr-13" value="need to finish testing search agent function" style="text;html=1;align=center;verticalAlign=middle;resizable=0;points=[];autosize=1;strokeColor=none;fillColor=none;" parent="1" vertex="1">
          <mxGeometry x="355" y="1408" width="250" height="30" as="geometry" />
        </mxCell>
        <mxCell id="lRYY8CRCjKX5iyrZZCtr-15" value="need to discover fetch ai agent SDK , then adapt uniswap code to agent" style="text;html=1;align=center;verticalAlign=middle;resizable=0;points=[];autosize=1;strokeColor=none;fillColor=none;" parent="1" vertex="1">
          <mxGeometry x="625" y="1408" width="410" height="30" as="geometry" />
        </mxCell>
        <mxCell id="lRYY8CRCjKX5iyrZZCtr-16" value="once received should store that transaction" style="text;html=1;align=center;verticalAlign=middle;resizable=0;points=[];autosize=1;strokeColor=none;fillColor=none;" parent="1" vertex="1">
          <mxGeometry x="365" y="-150" width="250" height="30" as="geometry" />
        </mxCell>
        <mxCell id="lRYY8CRCjKX5iyrZZCtr-17" value="same as receiving fee agent, receives request. if FEES transaction is stored, sends out the reward" style="text;html=1;align=center;verticalAlign=middle;resizable=0;points=[];autosize=1;strokeColor=none;fillColor=none;" parent="1" vertex="1">
          <mxGeometry x="0.5" y="440" width="550" height="30" as="geometry" />
        </mxCell>
        <mxCell id="lRYY8CRCjKX5iyrZZCtr-18" value="need to improve reasoning" style="text;html=1;align=center;verticalAlign=middle;resizable=0;points=[];autosize=1;strokeColor=none;fillColor=none;" parent="1" vertex="1">
          <mxGeometry x="500" y="180" width="170" height="30" as="geometry" />
        </mxCell>
        <mxCell id="lRYY8CRCjKX5iyrZZCtr-20" value="tops up Fet wallet of main agent" style="text;html=1;align=center;verticalAlign=middle;resizable=0;points=[];autosize=1;strokeColor=none;fillColor=none;" parent="1" vertex="1">
          <mxGeometry x="265" y="-262" width="190" height="30" as="geometry" />
        </mxCell>
        <mxCell id="lRYY8CRCjKX5iyrZZCtr-21" value="EMAIL" style="rounded=0;whiteSpace=wrap;html=1;fillColor=#d5e8d4;strokeColor=#82b366;" parent="1" vertex="1">
          <mxGeometry x="240" y="620" width="120" height="60" as="geometry" />
        </mxCell>
        <mxCell id="lRYY8CRCjKX5iyrZZCtr-23" value="send email confirmation of the transaction?&amp;nbsp;" style="text;html=1;align=center;verticalAlign=middle;resizable=0;points=[];autosize=1;strokeColor=none;fillColor=none;" parent="1" vertex="1">
          <mxGeometry x="380" y="635" width="260" height="30" as="geometry" />
        </mxCell>
        <mxCell id="lRYY8CRCjKX5iyrZZCtr-24" value="HEARTBEAT" style="rounded=0;whiteSpace=wrap;html=1;fillColor=#d5e8d4;strokeColor=#82b366;" parent="1" vertex="1">
          <mxGeometry x="240" y="710" width="120" height="60" as="geometry" />
        </mxCell>
        <mxCell id="lRYY8CRCjKX5iyrZZCtr-25" value="receive data from your heart beat to determine that your decisions are not emotional" style="text;html=1;align=center;verticalAlign=middle;resizable=0;points=[];autosize=1;strokeColor=none;fillColor=none;" parent="1" vertex="1">
          <mxGeometry x="380" y="725" width="470" height="30" as="geometry" />
        </mxCell>
        <mxCell id="lRYY8CRCjKX5iyrZZCtr-27" value="TOKEN&lt;div&gt;smart contract&lt;/div&gt;" style="shape=parallelogram;perimeter=parallelogramPerimeter;whiteSpace=wrap;html=1;fixedSize=1;" parent="1" vertex="1">
          <mxGeometry x="540" y="480" width="120" height="60" as="geometry" />
        </mxCell>
        <mxCell id="lRYY8CRCjKX5iyrZZCtr-28" value="" style="endArrow=classic;startArrow=classic;html=1;rounded=0;exitX=1;exitY=0.5;exitDx=0;exitDy=0;entryX=0;entryY=0.5;entryDx=0;entryDy=0;" parent="1" source="VmUqwLE5IVfGvtFNkpmf-2" target="lRYY8CRCjKX5iyrZZCtr-27" edge="1">
          <mxGeometry width="50" height="50" relative="1" as="geometry">
            <mxPoint x="500.5" y="515" as="sourcePoint" />
            <mxPoint x="550.5" y="465" as="targetPoint" />
          </mxGeometry>
        </mxCell>
      </root>
    </mxGraphModel>
  </diagram>
</mxfile>
